ply
format ascii 1.0
comment Created by Open3D
element vertex 13
property double x
property double y
property double z
property uchar red
property uchar green
property uchar blue
end_header
0.0662099 1.98491 0.14993 136 132 123
0.0736199 1.99183 0.15398 106 102 91
0.08295 1.98788 0.15828 106 101 92
0.0916499 1.98698 0.15664 201 199 195
0.0748499 1.98098 0.15586 52 42 29
0.0854901 1.97698 0.1571 118 111 103
0.09734 1.97693 0.15802 238 237 235
0.06698 1.97008 0.14953 125 118 109
0.0778299 1.97008 0.15363 59 48 36
0.0893999 1.97003 0.15547 180 175 170
0.0919901 1.96689 0.15588 207 203 199
0.11449 1.96371 0.1668 238 236 233
0.05891 1.95933 0.14399 231 230 228